<mxfile host="app.diagrams.net" modified="2022-02-25T19:28:43.247Z" agent="5.0 (Windows NT 10.0; Win64; x64) AppleWebKit/537.36 (KHTML, like Gecko) Chrome/98.0.4758.102 Safari/537.36" etag="AdVwuqW8gBY7zsObdntH" version="16.6.4" type="github">
  <diagram id="C5RBs43oDa-KdzZeNtuy" name="Page-1">
    <mxGraphModel dx="1102" dy="582" grid="1" gridSize="10" guides="1" tooltips="1" connect="1" arrows="1" fold="1" page="1" pageScale="1" pageWidth="827" pageHeight="1169" math="0" shadow="0">
      <root>
        <mxCell id="WIyWlLk6GJQsqaUBKTNV-0" />
        <mxCell id="WIyWlLk6GJQsqaUBKTNV-1" parent="WIyWlLk6GJQsqaUBKTNV-0" />
        <mxCell id="FD-UCS6BAIe2m4ibfWYW-23" value="" style="edgeStyle=orthogonalEdgeStyle;rounded=0;orthogonalLoop=1;jettySize=auto;html=1;" edge="1" parent="WIyWlLk6GJQsqaUBKTNV-1" source="FD-UCS6BAIe2m4ibfWYW-2" target="FD-UCS6BAIe2m4ibfWYW-22">
          <mxGeometry relative="1" as="geometry" />
        </mxCell>
        <mxCell id="FD-UCS6BAIe2m4ibfWYW-2" value="input: int n" style="shape=parallelogram;perimeter=parallelogramPerimeter;whiteSpace=wrap;html=1;fixedSize=1;" vertex="1" parent="WIyWlLk6GJQsqaUBKTNV-1">
          <mxGeometry x="354" y="130" width="120" height="60" as="geometry" />
        </mxCell>
        <mxCell id="FD-UCS6BAIe2m4ibfWYW-27" value="" style="edgeStyle=orthogonalEdgeStyle;rounded=0;orthogonalLoop=1;jettySize=auto;html=1;" edge="1" parent="WIyWlLk6GJQsqaUBKTNV-1" source="FD-UCS6BAIe2m4ibfWYW-22" target="FD-UCS6BAIe2m4ibfWYW-26">
          <mxGeometry relative="1" as="geometry" />
        </mxCell>
        <mxCell id="FD-UCS6BAIe2m4ibfWYW-22" value="initialize n, int n" style="whiteSpace=wrap;html=1;" vertex="1" parent="WIyWlLk6GJQsqaUBKTNV-1">
          <mxGeometry x="354" y="220" width="120" height="60" as="geometry" />
        </mxCell>
        <mxCell id="FD-UCS6BAIe2m4ibfWYW-25" value="" style="edgeStyle=orthogonalEdgeStyle;rounded=0;orthogonalLoop=1;jettySize=auto;html=1;" edge="1" parent="WIyWlLk6GJQsqaUBKTNV-1" source="FD-UCS6BAIe2m4ibfWYW-24" target="FD-UCS6BAIe2m4ibfWYW-2">
          <mxGeometry relative="1" as="geometry" />
        </mxCell>
        <mxCell id="FD-UCS6BAIe2m4ibfWYW-24" value="start" style="ellipse;whiteSpace=wrap;html=1;" vertex="1" parent="WIyWlLk6GJQsqaUBKTNV-1">
          <mxGeometry x="354" y="20" width="120" height="80" as="geometry" />
        </mxCell>
        <mxCell id="FD-UCS6BAIe2m4ibfWYW-29" value="" style="edgeStyle=orthogonalEdgeStyle;rounded=0;orthogonalLoop=1;jettySize=auto;html=1;" edge="1" parent="WIyWlLk6GJQsqaUBKTNV-1" source="FD-UCS6BAIe2m4ibfWYW-26" target="FD-UCS6BAIe2m4ibfWYW-28">
          <mxGeometry relative="1" as="geometry" />
        </mxCell>
        <mxCell id="FD-UCS6BAIe2m4ibfWYW-26" value="initialize n_count, int n_count" style="whiteSpace=wrap;html=1;" vertex="1" parent="WIyWlLk6GJQsqaUBKTNV-1">
          <mxGeometry x="354" y="310" width="120" height="60" as="geometry" />
        </mxCell>
        <mxCell id="FD-UCS6BAIe2m4ibfWYW-31" value="" style="edgeStyle=orthogonalEdgeStyle;rounded=0;orthogonalLoop=1;jettySize=auto;html=1;" edge="1" parent="WIyWlLk6GJQsqaUBKTNV-1" source="FD-UCS6BAIe2m4ibfWYW-28" target="FD-UCS6BAIe2m4ibfWYW-30">
          <mxGeometry relative="1" as="geometry" />
        </mxCell>
        <mxCell id="FD-UCS6BAIe2m4ibfWYW-28" value="initialize sum, int sum = 0" style="whiteSpace=wrap;html=1;" vertex="1" parent="WIyWlLk6GJQsqaUBKTNV-1">
          <mxGeometry x="354" y="400" width="120" height="60" as="geometry" />
        </mxCell>
        <mxCell id="FD-UCS6BAIe2m4ibfWYW-35" value="" style="edgeStyle=orthogonalEdgeStyle;rounded=0;orthogonalLoop=1;jettySize=auto;html=1;" edge="1" parent="WIyWlLk6GJQsqaUBKTNV-1" source="FD-UCS6BAIe2m4ibfWYW-30" target="FD-UCS6BAIe2m4ibfWYW-34">
          <mxGeometry relative="1" as="geometry" />
        </mxCell>
        <mxCell id="FD-UCS6BAIe2m4ibfWYW-48" value="" style="edgeStyle=orthogonalEdgeStyle;rounded=0;orthogonalLoop=1;jettySize=auto;html=1;" edge="1" parent="WIyWlLk6GJQsqaUBKTNV-1" source="FD-UCS6BAIe2m4ibfWYW-30" target="FD-UCS6BAIe2m4ibfWYW-47">
          <mxGeometry relative="1" as="geometry" />
        </mxCell>
        <mxCell id="FD-UCS6BAIe2m4ibfWYW-30" value="if n &amp;lt;= n_count" style="rhombus;whiteSpace=wrap;html=1;" vertex="1" parent="WIyWlLk6GJQsqaUBKTNV-1">
          <mxGeometry x="374" y="490" width="80" height="80" as="geometry" />
        </mxCell>
        <mxCell id="FD-UCS6BAIe2m4ibfWYW-37" value="" style="edgeStyle=orthogonalEdgeStyle;rounded=0;orthogonalLoop=1;jettySize=auto;html=1;" edge="1" parent="WIyWlLk6GJQsqaUBKTNV-1" source="FD-UCS6BAIe2m4ibfWYW-34" target="FD-UCS6BAIe2m4ibfWYW-36">
          <mxGeometry relative="1" as="geometry" />
        </mxCell>
        <mxCell id="FD-UCS6BAIe2m4ibfWYW-34" value="input: int s" style="shape=parallelogram;perimeter=parallelogramPerimeter;whiteSpace=wrap;html=1;fixedSize=1;" vertex="1" parent="WIyWlLk6GJQsqaUBKTNV-1">
          <mxGeometry x="354" y="600" width="120" height="60" as="geometry" />
        </mxCell>
        <mxCell id="FD-UCS6BAIe2m4ibfWYW-36" value="sum = sum + s ** 2" style="whiteSpace=wrap;html=1;" vertex="1" parent="WIyWlLk6GJQsqaUBKTNV-1">
          <mxGeometry x="354" y="690" width="120" height="60" as="geometry" />
        </mxCell>
        <mxCell id="FD-UCS6BAIe2m4ibfWYW-43" value="" style="edgeStyle=elbowEdgeStyle;elbow=horizontal;endArrow=classic;html=1;rounded=0;" edge="1" parent="WIyWlLk6GJQsqaUBKTNV-1">
          <mxGeometry width="50" height="50" relative="1" as="geometry">
            <mxPoint x="350" y="720" as="sourcePoint" />
            <mxPoint x="370" y="530" as="targetPoint" />
            <Array as="points">
              <mxPoint x="330" y="620" />
              <mxPoint x="280" y="670" />
            </Array>
          </mxGeometry>
        </mxCell>
        <mxCell id="FD-UCS6BAIe2m4ibfWYW-46" value="True" style="text;html=1;strokeColor=none;fillColor=none;align=center;verticalAlign=middle;whiteSpace=wrap;rounded=0;" vertex="1" parent="WIyWlLk6GJQsqaUBKTNV-1">
          <mxGeometry x="400" y="570" width="60" height="30" as="geometry" />
        </mxCell>
        <mxCell id="FD-UCS6BAIe2m4ibfWYW-50" value="" style="edgeStyle=orthogonalEdgeStyle;rounded=0;orthogonalLoop=1;jettySize=auto;html=1;" edge="1" parent="WIyWlLk6GJQsqaUBKTNV-1" source="FD-UCS6BAIe2m4ibfWYW-47" target="FD-UCS6BAIe2m4ibfWYW-49">
          <mxGeometry relative="1" as="geometry" />
        </mxCell>
        <mxCell id="FD-UCS6BAIe2m4ibfWYW-47" value="print s" style="whiteSpace=wrap;html=1;" vertex="1" parent="WIyWlLk6GJQsqaUBKTNV-1">
          <mxGeometry x="514" y="500" width="120" height="60" as="geometry" />
        </mxCell>
        <mxCell id="FD-UCS6BAIe2m4ibfWYW-49" value="end" style="ellipse;whiteSpace=wrap;html=1;" vertex="1" parent="WIyWlLk6GJQsqaUBKTNV-1">
          <mxGeometry x="514" y="790" width="120" height="60" as="geometry" />
        </mxCell>
      </root>
    </mxGraphModel>
  </diagram>
</mxfile>
